<svg id="Layer_1" data-name="Layer 1" xmlns="http://www.w3.org/2000/svg" viewBox="0 0 75.5 78.09"><defs><style>.cls-1{fill:red;}</style></defs><path class="cls-1" d="M79.44,16.1C78.31,11.36,75.3,5.17,70.26,3.55s-11.26,1.89-15,5c-4.41,3.67-6.86,9-9.43,14q-2.2,4.32-4.21,8.73c-1.84-3.45-3.7-6.89-5.67-10.25-2.57-4.39-5.65-8.71-10.09-11.38C21.12,6.89,16.38,7.93,12,10.78S5.7,17.58,5,22.6c-3.1,23,17.56,38.72,31.17,54.62l-.26.24c-1.36,1.31-.59,1.79.92,1.58a5.17,5.17,0,0,0,.74-.16c.55.67,1.09,1.34,1.61,2,1.32,1.71,9.24-3.55,8.29-4.78-.74-1-1.5-1.9-2.28-2.83C54.08,64.9,63.52,56.67,70.91,47,77.58,38.26,82.08,27.18,79.44,16.1ZM71.7,29.81a31.2,31.2,0,0,1-.48,3.24q-8.76,8.76-16.76,18.2c2.14-5.12,4.67-10.09,7.12-15.1a135,135,0,0,0,5.57-12.62c.7-1.89,2.14-4.91,2.27-7.51,0,.1.09.19.13.27A25.81,25.81,0,0,1,71.7,29.81Zm-20-6.36C54,18.74,56.17,13.5,59.43,9.36c2.07-2.62,5.2,0,7.49,2.86-2.27.28-5.87,3.26-6.66,4.25A237.64,237.64,0,0,0,45.58,37.36C47.48,32.66,49.51,28,51.71,23.45Zm-36.31,11c.16-.17.31-.35.45-.53a67.65,67.65,0,0,1,6.47-7.23c.13,4.23-.88,8.44-1.64,12.59-.26,1.47-.53,2.93-.79,4.4A49.25,49.25,0,0,1,15.4,34.42ZM31.53,38c-1.28,1.54-2.57,3.07-3.85,4.6l1.59-8.79c.26-1.45.53-2.9.77-4.34,1.26,2.3,2.44,4.66,3.6,7A15,15,0,0,0,31.53,38ZM26,51l4.79-5.71Q30.37,51,30,56.67c-1.53-1.7-3-3.42-4.45-5.18A6.28,6.28,0,0,0,26,51Zm13-8a19,19,0,0,0,5.28-3.49q-2.93,4.7-5.72,9.47C38.71,46.91,38.85,44.91,39,42.92ZM13.93,15.62a17.46,17.46,0,0,1,.81-2.19l.39.09c.93.77,2.62,1.08,3.68,1.82a20.27,20.27,0,0,1,2.62,2.19A35.88,35.88,0,0,1,24.51,21c-.52.32-.89.56-1,.63A81,81,0,0,0,14.07,30L14,29.5A29.87,29.87,0,0,1,13.93,15.62Zm44.9,39.44c-5,5.45-10.41,10.57-15.81,15.67-2.34-2.64-4.79-5.23-7.25-7.82a6.2,6.2,0,0,0,1.65-1.38C44.62,48.77,51.88,36,60.26,24c-.61,1.8-1.43,3.54-1.88,4.73C56.72,33,54.72,37.17,52.69,41.3c-4.07,8.26-8.24,16.47-10.45,25.45-.34,1.39,2.89,0,3.16-.06a12,12,0,0,0,4.91-3.45q8.55-11.46,18.17-22A56.3,56.3,0,0,1,58.83,55.06Z" transform="translate(-4.71 -3.14)"/></svg>